<svg xmlns="http://www.w3.org/2000/svg" width="1100" height="660" viewBox="0 0 1100 660" role="img" aria-labelledby="title desc">
<title id="title">ChatGPT activity profile</title>
<desc id="desc">ChatGPT + Codex activity: 1,711,807,817 lifetime tokens, 617 chats, 136 day streak. Updated Oct 07, 2026 · 06:42 AM EDT.</desc>
<rect x="1" y="1" width="1098" height="658" rx="22" fill="#15181e" stroke="#303641"/>
<g font-family="-apple-system,BlinkMacSystemFont,Segoe UI,Arial,sans-serif">
<text x="44" y="53" font-size="30" fill="#f2f5fa" font-weight="650" text-anchor="start">ChatGPT + Codex</text>
<text x="44" y="82" font-size="16" fill="#a6afbf" font-weight="400" text-anchor="start">Token activity &amp; usage insights</text>
<rect x="915" y="32" width="140" height="30" rx="15" fill="#132d24"/>
<circle cx="934" cy="47" r="4" fill="#56d89a"/>
<text x="948" y="52" font-size="11" fill="#87dfb3" font-weight="600" text-anchor="start">AUTO-UPDATED</text>
<rect x="44" y="111" width="1012" height="96" rx="13" fill="#1d222b" stroke="#303641"/>
<text x="145.2" y="150" font-size="25" fill="#f2f5fa" font-weight="600" text-anchor="middle">1.7B</text>
<text x="145.2" y="179" font-size="14" fill="#a6afbf" font-weight="400" text-anchor="middle">Lifetime tokens</text>
<text x="347.6" y="150" font-size="25" fill="#f2f5fa" font-weight="600" text-anchor="middle">213.7M</text>
<text x="347.6" y="179" font-size="14" fill="#a6afbf" font-weight="400" text-anchor="middle">Peak daily tokens</text>
<path d="M 246.4 131 v 54" stroke="#343b47"/>
<text x="550.0" y="150" font-size="25" fill="#f2f5fa" font-weight="600" text-anchor="middle">67m 48s</text>
<text x="550.0" y="179" font-size="14" fill="#a6afbf" font-weight="400" text-anchor="middle">Longest task</text>
<path d="M 448.8 131 v 54" stroke="#343b47"/>
<text x="752.4" y="150" font-size="25" fill="#f2f5fa" font-weight="600" text-anchor="middle">136 days</text>
<text x="752.4" y="179" font-size="14" fill="#a6afbf" font-weight="400" text-anchor="middle">Current streak</text>
<path d="M 651.2 131 v 54" stroke="#343b47"/>
<text x="954.8000000000001" y="150" font-size="25" fill="#f2f5fa" font-weight="600" text-anchor="middle">136 days</text>
<text x="954.8000000000001" y="179" font-size="14" fill="#a6afbf" font-weight="400" text-anchor="middle">Longest streak</text>
<path d="M 853.6 131 v 54" stroke="#343b47"/>
<text x="44" y="249" font-size="18" fill="#e4e9f2" font-weight="600" text-anchor="start">Daily token activity</text>
<text x="1056" y="249" font-size="14" fill="#a6afbf" font-weight="400" text-anchor="end">Past year</text>
<text x="44" y="277" font-size="12" fill="#a6afbf" font-weight="400" text-anchor="start">Oct</text>
<rect x="44" y="290" width="16" height="16" rx="4" fill="#2c323c"><title>2025-10-05: 0 tokens</title></rect>
<rect x="44" y="309" width="16" height="16" rx="4" fill="#2c323c"><title>2025-10-06: 0 tokens</title></rect>
<rect x="44" y="328" width="16" height="16" rx="4" fill="#2c323c"><title>2025-10-07: 0 tokens</title></rect>
<rect x="44" y="347" width="16" height="16" rx="4" fill="#2c323c"><title>2025-10-08: 0 tokens</title></rect>
<rect x="44" y="366" width="16" height="16" rx="4" fill="#2c323c"><title>2025-10-09: 0 tokens</title></rect>
<rect x="44" y="385" width="16" height="16" rx="4" fill="#2c323c"><title>2025-10-10: 0 tokens</title></rect>
<rect x="44" y="404" width="16" height="16" rx="4" fill="#2c323c"><title>2025-10-11: 0 tokens</title></rect>
<rect x="63" y="290" width="16" height="16" rx="4" fill="#2c323c"><title>2025-10-12: 0 tokens</title></rect>
<rect x="63" y="309" width="16" height="16" rx="4" fill="#2c323c"><title>2025-10-13: 0 tokens</title></rect>
<rect x="63" y="328" width="16" height="16" rx="4" fill="#2c323c"><title>2025-10-14: 0 tokens</title></rect>
<rect x="63" y="347" width="16" height="16" rx="4" fill="#2c323c"><title>2025-10-15: 0 tokens</title></rect>
<rect x="63" y="366" width="16" height="16" rx="4" fill="#2c323c"><title>2025-10-16: 0 tokens</title></rect>
<rect x="63" y="385" width="16" height="16" rx="4" fill="#2c323c"><title>2025-10-17: 0 tokens</title></rect>
<rect x="63" y="404" width="16" height="16" rx="4" fill="#2c323c"><title>2025-10-18: 0 tokens</title></rect>
<rect x="82" y="290" width="16" height="16" rx="4" fill="#2c323c"><title>2025-10-19: 0 tokens</title></rect>
<rect x="82" y="309" width="16" height="16" rx="4" fill="#2c323c"><title>2025-10-20: 0 tokens</title></rect>
<rect x="82" y="328" width="16" height="16" rx="4" fill="#2c323c"><title>2025-10-21: 0 tokens</title></rect>
<rect x="82" y="347" width="16" height="16" rx="4" fill="#2c323c"><title>2025-10-22: 0 tokens</title></rect>
<rect x="82" y="366" width="16" height="16" rx="4" fill="#2c323c"><title>2025-10-23: 0 tokens</title></rect>
<rect x="82" y="385" width="16" height="16" rx="4" fill="#2c323c"><title>2025-10-24: 0 tokens</title></rect>
<rect x="82" y="404" width="16" height="16" rx="4" fill="#2c323c"><title>2025-10-25: 0 tokens</title></rect>
<rect x="101" y="290" width="16" height="16" rx="4" fill="#2c323c"><title>2025-10-26: 0 tokens</title></rect>
<rect x="101" y="309" width="16" height="16" rx="4" fill="#2c323c"><title>2025-10-27: 0 tokens</title></rect>
<rect x="101" y="328" width="16" height="16" rx="4" fill="#2c323c"><title>2025-10-28: 0 tokens</title></rect>
<rect x="101" y="347" width="16" height="16" rx="4" fill="#2c323c"><title>2025-10-29: 0 tokens</title></rect>
<rect x="101" y="366" width="16" height="16" rx="4" fill="#2c323c"><title>2025-10-30: 0 tokens</title></rect>
<rect x="101" y="385" width="16" height="16" rx="4" fill="#2c323c"><title>2025-10-31: 0 tokens</title></rect>
<rect x="101" y="404" width="16" height="16" rx="4" fill="#2c323c"><title>2025-11-01: 0 tokens</title></rect>
<text x="120" y="277" font-size="12" fill="#a6afbf" font-weight="400" text-anchor="start">Nov</text>
<rect x="120" y="290" width="16" height="16" rx="4" fill="#2c323c"><title>2025-11-02: 0 tokens</title></rect>
<rect x="120" y="309" width="16" height="16" rx="4" fill="#2c323c"><title>2025-11-03: 0 tokens</title></rect>
<rect x="120" y="328" width="16" height="16" rx="4" fill="#2c323c"><title>2025-11-04: 0 tokens</title></rect>
<rect x="120" y="347" width="16" height="16" rx="4" fill="#2c323c"><title>2025-11-05: 0 tokens</title></rect>
<rect x="120" y="366" width="16" height="16" rx="4" fill="#2c323c"><title>2025-11-06: 0 tokens</title></rect>
<rect x="120" y="385" width="16" height="16" rx="4" fill="#2c323c"><title>2025-11-07: 0 tokens</title></rect>
<rect x="120" y="404" width="16" height="16" rx="4" fill="#2c323c"><title>2025-11-08: 0 tokens</title></rect>
<rect x="139" y="290" width="16" height="16" rx="4" fill="#2c323c"><title>2025-11-09: 0 tokens</title></rect>
<rect x="139" y="309" width="16" height="16" rx="4" fill="#2c323c"><title>2025-11-10: 0 tokens</title></rect>
<rect x="139" y="328" width="16" height="16" rx="4" fill="#2c323c"><title>2025-11-11: 0 tokens</title></rect>
<rect x="139" y="347" width="16" height="16" rx="4" fill="#2c323c"><title>2025-11-12: 0 tokens</title></rect>
<rect x="139" y="366" width="16" height="16" rx="4" fill="#2c323c"><title>2025-11-13: 0 tokens</title></rect>
<rect x="139" y="385" width="16" height="16" rx="4" fill="#2c323c"><title>2025-11-14: 0 tokens</title></rect>
<rect x="139" y="404" width="16" height="16" rx="4" fill="#2c323c"><title>2025-11-15: 0 tokens</title></rect>
<rect x="158" y="290" width="16" height="16" rx="4" fill="#2c323c"><title>2025-11-16: 0 tokens</title></rect>
<rect x="158" y="309" width="16" height="16" rx="4" fill="#2c323c"><title>2025-11-17: 0 tokens</title></rect>
<rect x="158" y="328" width="16" height="16" rx="4" fill="#2c323c"><title>2025-11-18: 0 tokens</title></rect>
<rect x="158" y="347" width="16" height="16" rx="4" fill="#2c323c"><title>2025-11-19: 0 tokens</title></rect>
<rect x="158" y="366" width="16" height="16" rx="4" fill="#2c323c"><title>2025-11-20: 0 tokens</title></rect>
<rect x="158" y="385" width="16" height="16" rx="4" fill="#2c323c"><title>2025-11-21: 0 tokens</title></rect>
<rect x="158" y="404" width="16" height="16" rx="4" fill="#2c323c"><title>2025-11-22: 0 tokens</title></rect>
<rect x="177" y="290" width="16" height="16" rx="4" fill="#2c323c"><title>2025-11-23: 0 tokens</title></rect>
<rect x="177" y="309" width="16" height="16" rx="4" fill="#2c323c"><title>2025-11-24: 0 tokens</title></rect>
<rect x="177" y="328" width="16" height="16" rx="4" fill="#2c323c"><title>2025-11-25: 0 tokens</title></rect>
<rect x="177" y="347" width="16" height="16" rx="4" fill="#2c323c"><title>2025-11-26: 0 tokens</title></rect>
<rect x="177" y="366" width="16" height="16" rx="4" fill="#2c323c"><title>2025-11-27: 0 tokens</title></rect>
<rect x="177" y="385" width="16" height="16" rx="4" fill="#2c323c"><title>2025-11-28: 0 tokens</title></rect>
<rect x="177" y="404" width="16" height="16" rx="4" fill="#2c323c"><title>2025-11-29: 0 tokens</title></rect>
<rect x="196" y="290" width="16" height="16" rx="4" fill="#2c323c"><title>2025-11-30: 0 tokens</title></rect>
<rect x="196" y="309" width="16" height="16" rx="4" fill="#2c323c"><title>2025-12-01: 0 tokens</title></rect>
<rect x="196" y="328" width="16" height="16" rx="4" fill="#2c323c"><title>2025-12-02: 0 tokens</title></rect>
<rect x="196" y="347" width="16" height="16" rx="4" fill="#2c323c"><title>2025-12-03: 0 tokens</title></rect>
<rect x="196" y="366" width="16" height="16" rx="4" fill="#2c323c"><title>2025-12-04: 0 tokens</title></rect>
<rect x="196" y="385" width="16" height="16" rx="4" fill="#2c323c"><title>2025-12-05: 0 tokens</title></rect>
<rect x="196" y="404" width="16" height="16" rx="4" fill="#2c323c"><title>2025-12-06: 0 tokens</title></rect>
<text x="215" y="277" font-size="12" fill="#a6afbf" font-weight="400" text-anchor="start">Dec</text>
<rect x="215" y="290" width="16" height="16" rx="4" fill="#2c323c"><title>2025-12-07: 0 tokens</title></rect>
<rect x="215" y="309" width="16" height="16" rx="4" fill="#2c323c"><title>2025-12-08: 0 tokens</title></rect>
<rect x="215" y="328" width="16" height="16" rx="4" fill="#2c323c"><title>2025-12-09: 0 tokens</title></rect>
<rect x="215" y="347" width="16" height="16" rx="4" fill="#2c323c"><title>2025-12-10: 0 tokens</title></rect>
<rect x="215" y="366" width="16" height="16" rx="4" fill="#2c323c"><title>2025-12-11: 0 tokens</title></rect>
<rect x="215" y="385" width="16" height="16" rx="4" fill="#2c323c"><title>2025-12-12: 0 tokens</title></rect>
<rect x="215" y="404" width="16" height="16" rx="4" fill="#2c323c"><title>2025-12-13: 0 tokens</title></rect>
<rect x="234" y="290" width="16" height="16" rx="4" fill="#2c323c"><title>2025-12-14: 0 tokens</title></rect>
<rect x="234" y="309" width="16" height="16" rx="4" fill="#2c323c"><title>2025-12-15: 0 tokens</title></rect>
<rect x="234" y="328" width="16" height="16" rx="4" fill="#2c323c"><title>2025-12-16: 0 tokens</title></rect>
<rect x="234" y="347" width="16" height="16" rx="4" fill="#2c323c"><title>2025-12-17: 0 tokens</title></rect>
<rect x="234" y="366" width="16" height="16" rx="4" fill="#2c323c"><title>2025-12-18: 0 tokens</title></rect>
<rect x="234" y="385" width="16" height="16" rx="4" fill="#2c323c"><title>2025-12-19: 0 tokens</title></rect>
<rect x="234" y="404" width="16" height="16" rx="4" fill="#2c323c"><title>2025-12-20: 0 tokens</title></rect>
<rect x="253" y="290" width="16" height="16" rx="4" fill="#2c323c"><title>2025-12-21: 0 tokens</title></rect>
<rect x="253" y="309" width="16" height="16" rx="4" fill="#2c323c"><title>2025-12-22: 0 tokens</title></rect>
<rect x="253" y="328" width="16" height="16" rx="4" fill="#2c323c"><title>2025-12-23: 0 tokens</title></rect>
<rect x="253" y="347" width="16" height="16" rx="4" fill="#2c323c"><title>2025-12-24: 0 tokens</title></rect>
<rect x="253" y="366" width="16" height="16" rx="4" fill="#2c323c"><title>2025-12-25: 0 tokens</title></rect>
<rect x="253" y="385" width="16" height="16" rx="4" fill="#2c323c"><title>2025-12-26: 0 tokens</title></rect>
<rect x="253" y="404" width="16" height="16" rx="4" fill="#2c323c"><title>2025-12-27: 0 tokens</title></rect>
<rect x="272" y="290" width="16" height="16" rx="4" fill="#2c323c"><title>2025-12-28: 0 tokens</title></rect>
<rect x="272" y="309" width="16" height="16" rx="4" fill="#2c323c"><title>2025-12-29: 0 tokens</title></rect>
<rect x="272" y="328" width="16" height="16" rx="4" fill="#2c323c"><title>2025-12-30: 0 tokens</title></rect>
<rect x="272" y="347" width="16" height="16" rx="4" fill="#2c323c"><title>2025-12-31: 0 tokens</title></rect>
<rect x="272" y="366" width="16" height="16" rx="4" fill="#2c323c"><title>2026-01-01: 0 tokens</title></rect>
<rect x="272" y="385" width="16" height="16" rx="4" fill="#2c323c"><title>2026-01-02: 0 tokens</title></rect>
<rect x="272" y="404" width="16" height="16" rx="4" fill="#2c323c"><title>2026-01-03: 0 tokens</title></rect>
<text x="291" y="277" font-size="12" fill="#a6afbf" font-weight="400" text-anchor="start">Jan</text>
<rect x="291" y="290" width="16" height="16" rx="4" fill="#2c323c"><title>2026-01-04: 0 tokens</title></rect>
<rect x="291" y="309" width="16" height="16" rx="4" fill="#2c323c"><title>2026-01-05: 0 tokens</title></rect>
<rect x="291" y="328" width="16" height="16" rx="4" fill="#2c323c"><title>2026-01-06: 0 tokens</title></rect>
<rect x="291" y="347" width="16" height="16" rx="4" fill="#2c323c"><title>2026-01-07: 0 tokens</title></rect>
<rect x="291" y="366" width="16" height="16" rx="4" fill="#2c323c"><title>2026-01-08: 0 tokens</title></rect>
<rect x="291" y="385" width="16" height="16" rx="4" fill="#2c323c"><title>2026-01-09: 0 tokens</title></rect>
<rect x="291" y="404" width="16" height="16" rx="4" fill="#2c323c"><title>2026-01-10: 0 tokens</title></rect>
<rect x="310" y="290" width="16" height="16" rx="4" fill="#2c323c"><title>2026-01-11: 0 tokens</title></rect>
<rect x="310" y="309" width="16" height="16" rx="4" fill="#2c323c"><title>2026-01-12: 0 tokens</title></rect>
<rect x="310" y="328" width="16" height="16" rx="4" fill="#2c323c"><title>2026-01-13: 0 tokens</title></rect>
<rect x="310" y="347" width="16" height="16" rx="4" fill="#2c323c"><title>2026-01-14: 0 tokens</title></rect>
<rect x="310" y="366" width="16" height="16" rx="4" fill="#2c323c"><title>2026-01-15: 0 tokens</title></rect>
<rect x="310" y="385" width="16" height="16" rx="4" fill="#2c323c"><title>2026-01-16: 0 tokens</title></rect>
<rect x="310" y="404" width="16" height="16" rx="4" fill="#2c323c"><title>2026-01-17: 0 tokens</title></rect>
<rect x="329" y="290" width="16" height="16" rx="4" fill="#2c323c"><title>2026-01-18: 0 tokens</title></rect>
<rect x="329" y="309" width="16" height="16" rx="4" fill="#2c323c"><title>2026-01-19: 0 tokens</title></rect>
<rect x="329" y="328" width="16" height="16" rx="4" fill="#2c323c"><title>2026-01-20: 0 tokens</title></rect>
<rect x="329" y="347" width="16" height="16" rx="4" fill="#2c323c"><title>2026-01-21: 0 tokens</title></rect>
<rect x="329" y="366" width="16" height="16" rx="4" fill="#2c323c"><title>2026-01-22: 0 tokens</title></rect>
<rect x="329" y="385" width="16" height="16" rx="4" fill="#2c323c"><title>2026-01-23: 0 tokens</title></rect>
<rect x="329" y="404" width="16" height="16" rx="4" fill="#2c323c"><title>2026-01-24: 0 tokens</title></rect>
<rect x="348" y="290" width="16" height="16" rx="4" fill="#2c323c"><title>2026-01-25: 0 tokens</title></rect>
<rect x="348" y="309" width="16" height="16" rx="4" fill="#2c323c"><title>2026-01-26: 0 tokens</title></rect>
<rect x="348" y="328" width="16" height="16" rx="4" fill="#2c323c"><title>2026-01-27: 0 tokens</title></rect>
<rect x="348" y="347" width="16" height="16" rx="4" fill="#2c323c"><title>2026-01-28: 0 tokens</title></rect>
<rect x="348" y="366" width="16" height="16" rx="4" fill="#2c323c"><title>2026-01-29: 0 tokens</title></rect>
<rect x="348" y="385" width="16" height="16" rx="4" fill="#3984df"><title>2026-01-30: 1,345,958 tokens</title></rect>
<rect x="348" y="404" width="16" height="16" rx="4" fill="#2c323c"><title>2026-01-31: 0 tokens</title></rect>
<text x="367" y="277" font-size="12" fill="#a6afbf" font-weight="400" text-anchor="start">Feb</text>
<rect x="367" y="290" width="16" height="16" rx="4" fill="#2c323c"><title>2026-02-01: 0 tokens</title></rect>
<rect x="367" y="309" width="16" height="16" rx="4" fill="#80b9ff"><title>2026-02-02: 2,473,638 tokens</title></rect>
<rect x="367" y="328" width="16" height="16" rx="4" fill="#2c323c"><title>2026-02-03: 0 tokens</title></rect>
<rect x="367" y="347" width="16" height="16" rx="4" fill="#163d70"><title>2026-02-04: 15,792 tokens</title></rect>
<rect x="367" y="366" width="16" height="16" rx="4" fill="#163d70"><title>2026-02-05: 20,682 tokens</title></rect>
<rect x="367" y="385" width="16" height="16" rx="4" fill="#2c323c"><title>2026-02-06: 0 tokens</title></rect>
<rect x="367" y="404" width="16" height="16" rx="4" fill="#163d70"><title>2026-02-07: 54,206 tokens</title></rect>
<rect x="386" y="290" width="16" height="16" rx="4" fill="#2c323c"><title>2026-02-08: 0 tokens</title></rect>
<rect x="386" y="309" width="16" height="16" rx="4" fill="#80b9ff"><title>2026-02-09: 2,016,238 tokens</title></rect>
<rect x="386" y="328" width="16" height="16" rx="4" fill="#2c323c"><title>2026-02-10: 0 tokens</title></rect>
<rect x="386" y="347" width="16" height="16" rx="4" fill="#2c323c"><title>2026-02-11: 0 tokens</title></rect>
<rect x="386" y="366" width="16" height="16" rx="4" fill="#2c323c"><title>2026-02-12: 0 tokens</title></rect>
<rect x="386" y="385" width="16" height="16" rx="4" fill="#80b9ff"><title>2026-02-13: 34,878,778 tokens</title></rect>
<rect x="386" y="404" width="16" height="16" rx="4" fill="#2c323c"><title>2026-02-14: 0 tokens</title></rect>
<rect x="405" y="290" width="16" height="16" rx="4" fill="#2c323c"><title>2026-02-15: 0 tokens</title></rect>
<rect x="405" y="309" width="16" height="16" rx="4" fill="#2c323c"><title>2026-02-16: 0 tokens</title></rect>
<rect x="405" y="328" width="16" height="16" rx="4" fill="#2c323c"><title>2026-02-17: 0 tokens</title></rect>
<rect x="405" y="347" width="16" height="16" rx="4" fill="#3984df"><title>2026-02-18: 920,685 tokens</title></rect>
<rect x="405" y="366" width="16" height="16" rx="4" fill="#80b9ff"><title>2026-02-19: 12,676,100 tokens</title></rect>
<rect x="405" y="385" width="16" height="16" rx="4" fill="#80b9ff"><title>2026-02-20: 16,687,564 tokens</title></rect>
<rect x="405" y="404" width="16" height="16" rx="4" fill="#163d70"><title>2026-02-21: 470,298 tokens</title></rect>
<rect x="424" y="290" width="16" height="16" rx="4" fill="#80b9ff"><title>2026-02-22: 5,538,069 tokens</title></rect>
<rect x="424" y="309" width="16" height="16" rx="4" fill="#163d70"><title>2026-02-23: 344,457 tokens</title></rect>
<rect x="424" y="328" width="16" height="16" rx="4" fill="#3984df"><title>2026-02-24: 1,257,838 tokens</title></rect>
<rect x="424" y="347" width="16" height="16" rx="4" fill="#80b9ff"><title>2026-02-25: 11,796,926 tokens</title></rect>
<rect x="424" y="366" width="16" height="16" rx="4" fill="#163d70"><title>2026-02-26: 259,123 tokens</title></rect>
<rect x="424" y="385" width="16" height="16" rx="4" fill="#80b9ff"><title>2026-02-27: 3,846,109 tokens</title></rect>
<rect x="424" y="404" width="16" height="16" rx="4" fill="#245fa5"><title>2026-02-28: 518,892 tokens</title></rect>
<text x="443" y="277" font-size="12" fill="#a6afbf" font-weight="400" text-anchor="start">Mar</text>
<rect x="443" y="290" width="16" height="16" rx="4" fill="#80b9ff"><title>2026-03-01: 3,436,712 tokens</title></rect>
<rect x="443" y="309" width="16" height="16" rx="4" fill="#245fa5"><title>2026-03-02: 576,663 tokens</title></rect>
<rect x="443" y="328" width="16" height="16" rx="4" fill="#163d70"><title>2026-03-03: 389,400 tokens</title></rect>
<rect x="443" y="347" width="16" height="16" rx="4" fill="#163d70"><title>2026-03-04: 165,344 tokens</title></rect>
<rect x="443" y="366" width="16" height="16" rx="4" fill="#2c323c"><title>2026-03-05: 0 tokens</title></rect>
<rect x="443" y="385" width="16" height="16" rx="4" fill="#2c323c"><title>2026-03-06: 0 tokens</title></rect>
<rect x="443" y="404" width="16" height="16" rx="4" fill="#2c323c"><title>2026-03-07: 0 tokens</title></rect>
<rect x="462" y="290" width="16" height="16" rx="4" fill="#2c323c"><title>2026-03-08: 0 tokens</title></rect>
<rect x="462" y="309" width="16" height="16" rx="4" fill="#2c323c"><title>2026-03-09: 0 tokens</title></rect>
<rect x="462" y="328" width="16" height="16" rx="4" fill="#2c323c"><title>2026-03-10: 0 tokens</title></rect>
<rect x="462" y="347" width="16" height="16" rx="4" fill="#2c323c"><title>2026-03-11: 0 tokens</title></rect>
<rect x="462" y="366" width="16" height="16" rx="4" fill="#163d70"><title>2026-03-12: 53,134 tokens</title></rect>
<rect x="462" y="385" width="16" height="16" rx="4" fill="#163d70"><title>2026-03-13: 69,801 tokens</title></rect>
<rect x="462" y="404" width="16" height="16" rx="4" fill="#163d70"><title>2026-03-14: 36,289 tokens</title></rect>
<rect x="481" y="290" width="16" height="16" rx="4" fill="#80b9ff"><title>2026-03-15: 33,230,590 tokens</title></rect>
<rect x="481" y="309" width="16" height="16" rx="4" fill="#163d70"><title>2026-03-16: 35,685 tokens</title></rect>
<rect x="481" y="328" width="16" height="16" rx="4" fill="#163d70"><title>2026-03-17: 40,354 tokens</title></rect>
<rect x="481" y="347" width="16" height="16" rx="4" fill="#163d70"><title>2026-03-18: 194,547 tokens</title></rect>
<rect x="481" y="366" width="16" height="16" rx="4" fill="#163d70"><title>2026-03-19: 85,809 tokens</title></rect>
<rect x="481" y="385" width="16" height="16" rx="4" fill="#163d70"><title>2026-03-20: 40,488 tokens</title></rect>
<rect x="481" y="404" width="16" height="16" rx="4" fill="#163d70"><title>2026-03-21: 36,149 tokens</title></rect>
<rect x="500" y="290" width="16" height="16" rx="4" fill="#163d70"><title>2026-03-22: 183,787 tokens</title></rect>
<rect x="500" y="309" width="16" height="16" rx="4" fill="#163d70"><title>2026-03-23: 12,090 tokens</title></rect>
<rect x="500" y="328" width="16" height="16" rx="4" fill="#163d70"><title>2026-03-24: 36,929 tokens</title></rect>
<rect x="500" y="347" width="16" height="16" rx="4" fill="#2c323c"><title>2026-03-25: 0 tokens</title></rect>
<rect x="500" y="366" width="16" height="16" rx="4" fill="#2c323c"><title>2026-03-26: 0 tokens</title></rect>
<rect x="500" y="385" width="16" height="16" rx="4" fill="#2c323c"><title>2026-03-27: 0 tokens</title></rect>
<rect x="500" y="404" width="16" height="16" rx="4" fill="#2c323c"><title>2026-03-28: 0 tokens</title></rect>
<rect x="519" y="290" width="16" height="16" rx="4" fill="#2c323c"><title>2026-03-29: 0 tokens</title></rect>
<rect x="519" y="309" width="16" height="16" rx="4" fill="#2c323c"><title>2026-03-30: 0 tokens</title></rect>
<rect x="519" y="328" width="16" height="16" rx="4" fill="#2c323c"><title>2026-03-31: 0 tokens</title></rect>
<rect x="519" y="347" width="16" height="16" rx="4" fill="#2c323c"><title>2026-04-01: 0 tokens</title></rect>
<rect x="519" y="366" width="16" height="16" rx="4" fill="#2c323c"><title>2026-04-02: 0 tokens</title></rect>
<rect x="519" y="385" width="16" height="16" rx="4" fill="#2c323c"><title>2026-04-03: 0 tokens</title></rect>
<rect x="519" y="404" width="16" height="16" rx="4" fill="#2c323c"><title>2026-04-04: 0 tokens</title></rect>
<text x="538" y="277" font-size="12" fill="#a6afbf" font-weight="400" text-anchor="start">Apr</text>
<rect x="538" y="290" width="16" height="16" rx="4" fill="#2c323c"><title>2026-04-05: 0 tokens</title></rect>
<rect x="538" y="309" width="16" height="16" rx="4" fill="#2c323c"><title>2026-04-06: 0 tokens</title></rect>
<rect x="538" y="328" width="16" height="16" rx="4" fill="#2c323c"><title>2026-04-07: 0 tokens</title></rect>
<rect x="538" y="347" width="16" height="16" rx="4" fill="#2c323c"><title>2026-04-08: 0 tokens</title></rect>
<rect x="538" y="366" width="16" height="16" rx="4" fill="#2c323c"><title>2026-04-09: 0 tokens</title></rect>
<rect x="538" y="385" width="16" height="16" rx="4" fill="#2c323c"><title>2026-04-10: 0 tokens</title></rect>
<rect x="538" y="404" width="16" height="16" rx="4" fill="#2c323c"><title>2026-04-11: 0 tokens</title></rect>
<rect x="557" y="290" width="16" height="16" rx="4" fill="#80b9ff"><title>2026-04-12: 3,458,556 tokens</title></rect>
<rect x="557" y="309" width="16" height="16" rx="4" fill="#2c323c"><title>2026-04-13: 0 tokens</title></rect>
<rect x="557" y="328" width="16" height="16" rx="4" fill="#2c323c"><title>2026-04-14: 0 tokens</title></rect>
<rect x="557" y="347" width="16" height="16" rx="4" fill="#2c323c"><title>2026-04-15: 0 tokens</title></rect>
<rect x="557" y="366" width="16" height="16" rx="4" fill="#2c323c"><title>2026-04-16: 0 tokens</title></rect>
<rect x="557" y="385" width="16" height="16" rx="4" fill="#2c323c"><title>2026-04-17: 0 tokens</title></rect>
<rect x="557" y="404" width="16" height="16" rx="4" fill="#2c323c"><title>2026-04-18: 0 tokens</title></rect>
<rect x="576" y="290" width="16" height="16" rx="4" fill="#2c323c"><title>2026-04-19: 0 tokens</title></rect>
<rect x="576" y="309" width="16" height="16" rx="4" fill="#2c323c"><title>2026-04-20: 0 tokens</title></rect>
<rect x="576" y="328" width="16" height="16" rx="4" fill="#2c323c"><title>2026-04-21: 0 tokens</title></rect>
<rect x="576" y="347" width="16" height="16" rx="4" fill="#2c323c"><title>2026-04-22: 0 tokens</title></rect>
<rect x="576" y="366" width="16" height="16" rx="4" fill="#2c323c"><title>2026-04-23: 0 tokens</title></rect>
<rect x="576" y="385" width="16" height="16" rx="4" fill="#2c323c"><title>2026-04-24: 0 tokens</title></rect>
<rect x="576" y="404" width="16" height="16" rx="4" fill="#2c323c"><title>2026-04-25: 0 tokens</title></rect>
<rect x="595" y="290" width="16" height="16" rx="4" fill="#2c323c"><title>2026-04-26: 0 tokens</title></rect>
<rect x="595" y="309" width="16" height="16" rx="4" fill="#2c323c"><title>2026-04-27: 0 tokens</title></rect>
<rect x="595" y="328" width="16" height="16" rx="4" fill="#2c323c"><title>2026-04-28: 0 tokens</title></rect>
<rect x="595" y="347" width="16" height="16" rx="4" fill="#2c323c"><title>2026-04-29: 0 tokens</title></rect>
<rect x="595" y="366" width="16" height="16" rx="4" fill="#2c323c"><title>2026-04-30: 0 tokens</title></rect>
<rect x="595" y="385" width="16" height="16" rx="4" fill="#163d70"><title>2026-05-01: 151,886 tokens</title></rect>
<rect x="595" y="404" width="16" height="16" rx="4" fill="#2c323c"><title>2026-05-02: 0 tokens</title></rect>
<text x="614" y="277" font-size="12" fill="#a6afbf" font-weight="400" text-anchor="start">May</text>
<rect x="614" y="290" width="16" height="16" rx="4" fill="#2c323c"><title>2026-05-03: 0 tokens</title></rect>
<rect x="614" y="309" width="16" height="16" rx="4" fill="#163d70"><title>2026-05-04: 72,141 tokens</title></rect>
<rect x="614" y="328" width="16" height="16" rx="4" fill="#80b9ff"><title>2026-05-05: 9,679,992 tokens</title></rect>
<rect x="614" y="347" width="16" height="16" rx="4" fill="#2c323c"><title>2026-05-06: 0 tokens</title></rect>
<rect x="614" y="366" width="16" height="16" rx="4" fill="#2c323c"><title>2026-05-07: 0 tokens</title></rect>
<rect x="614" y="385" width="16" height="16" rx="4" fill="#2c323c"><title>2026-05-08: 0 tokens</title></rect>
<rect x="614" y="404" width="16" height="16" rx="4" fill="#2c323c"><title>2026-05-09: 0 tokens</title></rect>
<rect x="633" y="290" width="16" height="16" rx="4" fill="#2c323c"><title>2026-05-10: 0 tokens</title></rect>
<rect x="633" y="309" width="16" height="16" rx="4" fill="#2c323c"><title>2026-05-11: 0 tokens</title></rect>
<rect x="633" y="328" width="16" height="16" rx="4" fill="#2c323c"><title>2026-05-12: 0 tokens</title></rect>
<rect x="633" y="347" width="16" height="16" rx="4" fill="#2c323c"><title>2026-05-13: 0 tokens</title></rect>
<rect x="633" y="366" width="16" height="16" rx="4" fill="#2c323c"><title>2026-05-14: 0 tokens</title></rect>
<rect x="633" y="385" width="16" height="16" rx="4" fill="#2c323c"><title>2026-05-15: 0 tokens</title></rect>
<rect x="633" y="404" width="16" height="16" rx="4" fill="#2c323c"><title>2026-05-16: 0 tokens</title></rect>
<rect x="652" y="290" width="16" height="16" rx="4" fill="#2c323c"><title>2026-05-17: 0 tokens</title></rect>
<rect x="652" y="309" width="16" height="16" rx="4" fill="#2c323c"><title>2026-05-18: 0 tokens</title></rect>
<rect x="652" y="328" width="16" height="16" rx="4" fill="#2c323c"><title>2026-05-19: 0 tokens</title></rect>
<rect x="652" y="347" width="16" height="16" rx="4" fill="#2c323c"><title>2026-05-20: 0 tokens</title></rect>
<rect x="652" y="366" width="16" height="16" rx="4" fill="#2c323c"><title>2026-05-21: 0 tokens</title></rect>
<rect x="652" y="385" width="16" height="16" rx="4" fill="#2c323c"><title>2026-05-22: 0 tokens</title></rect>
<rect x="652" y="404" width="16" height="16" rx="4" fill="#2c323c"><title>2026-05-23: 0 tokens</title></rect>
<rect x="671" y="290" width="16" height="16" rx="4" fill="#2c323c"><title>2026-05-24: 0 tokens</title></rect>
<rect x="671" y="309" width="16" height="16" rx="4" fill="#80b9ff"><title>2026-05-25: 16,815,495 tokens</title></rect>
<rect x="671" y="328" width="16" height="16" rx="4" fill="#80b9ff"><title>2026-05-26: 2,669,034 tokens</title></rect>
<rect x="671" y="347" width="16" height="16" rx="4" fill="#245fa5"><title>2026-05-27: 835,132 tokens</title></rect>
<rect x="671" y="366" width="16" height="16" rx="4" fill="#80b9ff"><title>2026-05-28: 8,415,608 tokens</title></rect>
<rect x="671" y="385" width="16" height="16" rx="4" fill="#3984df"><title>2026-05-29: 1,413,461 tokens</title></rect>
<rect x="671" y="404" width="16" height="16" rx="4" fill="#3984df"><title>2026-05-30: 1,049,961 tokens</title></rect>
<rect x="690" y="290" width="16" height="16" rx="4" fill="#80b9ff"><title>2026-05-31: 37,180,389 tokens</title></rect>
<rect x="690" y="309" width="16" height="16" rx="4" fill="#80b9ff"><title>2026-06-01: 2,367,621 tokens</title></rect>
<rect x="690" y="328" width="16" height="16" rx="4" fill="#3984df"><title>2026-06-02: 2,000,957 tokens</title></rect>
<rect x="690" y="347" width="16" height="16" rx="4" fill="#245fa5"><title>2026-06-03: 673,365 tokens</title></rect>
<rect x="690" y="366" width="16" height="16" rx="4" fill="#80b9ff"><title>2026-06-04: 4,190,444 tokens</title></rect>
<rect x="690" y="385" width="16" height="16" rx="4" fill="#3984df"><title>2026-06-05: 872,569 tokens</title></rect>
<rect x="690" y="404" width="16" height="16" rx="4" fill="#245fa5"><title>2026-06-06: 566,762 tokens</title></rect>
<text x="709" y="277" font-size="12" fill="#a6afbf" font-weight="400" text-anchor="start">Jun</text>
<rect x="709" y="290" width="16" height="16" rx="4" fill="#245fa5"><title>2026-06-07: 787,207 tokens</title></rect>
<rect x="709" y="309" width="16" height="16" rx="4" fill="#3984df"><title>2026-06-08: 1,038,306 tokens</title></rect>
<rect x="709" y="328" width="16" height="16" rx="4" fill="#245fa5"><title>2026-06-09: 655,316 tokens</title></rect>
<rect x="709" y="347" width="16" height="16" rx="4" fill="#245fa5"><title>2026-06-10: 788,316 tokens</title></rect>
<rect x="709" y="366" width="16" height="16" rx="4" fill="#80b9ff"><title>2026-06-11: 3,434,898 tokens</title></rect>
<rect x="709" y="385" width="16" height="16" rx="4" fill="#80b9ff"><title>2026-06-12: 7,077,048 tokens</title></rect>
<rect x="709" y="404" width="16" height="16" rx="4" fill="#163d70"><title>2026-06-13: 498,365 tokens</title></rect>
<rect x="728" y="290" width="16" height="16" rx="4" fill="#245fa5"><title>2026-06-14: 510,149 tokens</title></rect>
<rect x="728" y="309" width="16" height="16" rx="4" fill="#3984df"><title>2026-06-15: 1,432,694 tokens</title></rect>
<rect x="728" y="328" width="16" height="16" rx="4" fill="#3984df"><title>2026-06-16: 859,772 tokens</title></rect>
<rect x="728" y="347" width="16" height="16" rx="4" fill="#3984df"><title>2026-06-17: 1,286,134 tokens</title></rect>
<rect x="728" y="366" width="16" height="16" rx="4" fill="#3984df"><title>2026-06-18: 837,964 tokens</title></rect>
<rect x="728" y="385" width="16" height="16" rx="4" fill="#245fa5"><title>2026-06-19: 711,388 tokens</title></rect>
<rect x="728" y="404" width="16" height="16" rx="4" fill="#163d70"><title>2026-06-20: 434,037 tokens</title></rect>
<rect x="747" y="290" width="16" height="16" rx="4" fill="#80b9ff"><title>2026-06-21: 2,325,833 tokens</title></rect>
<rect x="747" y="309" width="16" height="16" rx="4" fill="#3984df"><title>2026-06-22: 1,151,860 tokens</title></rect>
<rect x="747" y="328" width="16" height="16" rx="4" fill="#245fa5"><title>2026-06-23: 739,607 tokens</title></rect>
<rect x="747" y="347" width="16" height="16" rx="4" fill="#3984df"><title>2026-06-24: 853,794 tokens</title></rect>
<rect x="747" y="366" width="16" height="16" rx="4" fill="#3984df"><title>2026-06-25: 1,181,478 tokens</title></rect>
<rect x="747" y="385" width="16" height="16" rx="4" fill="#3984df"><title>2026-06-26: 1,416,222 tokens</title></rect>
<rect x="747" y="404" width="16" height="16" rx="4" fill="#3984df"><title>2026-06-27: 876,887 tokens</title></rect>
<rect x="766" y="290" width="16" height="16" rx="4" fill="#245fa5"><title>2026-06-28: 724,728 tokens</title></rect>
<rect x="766" y="309" width="16" height="16" rx="4" fill="#3984df"><title>2026-06-29: 1,168,358 tokens</title></rect>
<rect x="766" y="328" width="16" height="16" rx="4" fill="#3984df"><title>2026-06-30: 1,039,881 tokens</title></rect>
<rect x="766" y="347" width="16" height="16" rx="4" fill="#3984df"><title>2026-07-01: 1,660,353 tokens</title></rect>
<rect x="766" y="366" width="16" height="16" rx="4" fill="#3984df"><title>2026-07-02: 1,179,363 tokens</title></rect>
<rect x="766" y="385" width="16" height="16" rx="4" fill="#3984df"><title>2026-07-03: 1,200,791 tokens</title></rect>
<rect x="766" y="404" width="16" height="16" rx="4" fill="#245fa5"><title>2026-07-04: 806,505 tokens</title></rect>
<text x="785" y="277" font-size="12" fill="#a6afbf" font-weight="400" text-anchor="start">Jul</text>
<rect x="785" y="290" width="16" height="16" rx="4" fill="#3984df"><title>2026-07-05: 895,725 tokens</title></rect>
<rect x="785" y="309" width="16" height="16" rx="4" fill="#3984df"><title>2026-07-06: 1,182,622 tokens</title></rect>
<rect x="785" y="328" width="16" height="16" rx="4" fill="#245fa5"><title>2026-07-07: 777,975 tokens</title></rect>
<rect x="785" y="347" width="16" height="16" rx="4" fill="#3984df"><title>2026-07-08: 863,572 tokens</title></rect>
<rect x="785" y="366" width="16" height="16" rx="4" fill="#245fa5"><title>2026-07-09: 738,030 tokens</title></rect>
<rect x="785" y="385" width="16" height="16" rx="4" fill="#245fa5"><title>2026-07-10: 628,534 tokens</title></rect>
<rect x="785" y="404" width="16" height="16" rx="4" fill="#245fa5"><title>2026-07-11: 650,057 tokens</title></rect>
<rect x="804" y="290" width="16" height="16" rx="4" fill="#3984df"><title>2026-07-12: 857,656 tokens</title></rect>
<rect x="804" y="309" width="16" height="16" rx="4" fill="#3984df"><title>2026-07-13: 1,028,988 tokens</title></rect>
<rect x="804" y="328" width="16" height="16" rx="4" fill="#245fa5"><title>2026-07-14: 644,938 tokens</title></rect>
<rect x="804" y="347" width="16" height="16" rx="4" fill="#245fa5"><title>2026-07-15: 574,553 tokens</title></rect>
<rect x="804" y="366" width="16" height="16" rx="4" fill="#245fa5"><title>2026-07-16: 540,689 tokens</title></rect>
<rect x="804" y="385" width="16" height="16" rx="4" fill="#245fa5"><title>2026-07-17: 588,017 tokens</title></rect>
<rect x="804" y="404" width="16" height="16" rx="4" fill="#245fa5"><title>2026-07-18: 546,918 tokens</title></rect>
<rect x="823" y="290" width="16" height="16" rx="4" fill="#163d70"><title>2026-07-19: 489,426 tokens</title></rect>
<rect x="823" y="309" width="16" height="16" rx="4" fill="#3984df"><title>2026-07-20: 1,474,712 tokens</title></rect>
<rect x="823" y="328" width="16" height="16" rx="4" fill="#245fa5"><title>2026-07-21: 829,435 tokens</title></rect>
<rect x="823" y="347" width="16" height="16" rx="4" fill="#245fa5"><title>2026-07-22: 622,883 tokens</title></rect>
<rect x="823" y="366" width="16" height="16" rx="4" fill="#245fa5"><title>2026-07-23: 532,634 tokens</title></rect>
<rect x="823" y="385" width="16" height="16" rx="4" fill="#245fa5"><title>2026-07-24: 662,451 tokens</title></rect>
<rect x="823" y="404" width="16" height="16" rx="4" fill="#3984df"><title>2026-07-25: 878,897 tokens</title></rect>
<rect x="842" y="290" width="16" height="16" rx="4" fill="#245fa5"><title>2026-07-26: 833,819 tokens</title></rect>
<rect x="842" y="309" width="16" height="16" rx="4" fill="#3984df"><title>2026-07-27: 998,518 tokens</title></rect>
<rect x="842" y="328" width="16" height="16" rx="4" fill="#245fa5"><title>2026-07-28: 800,609 tokens</title></rect>
<rect x="842" y="347" width="16" height="16" rx="4" fill="#3984df"><title>2026-07-29: 1,002,354 tokens</title></rect>
<rect x="842" y="366" width="16" height="16" rx="4" fill="#245fa5"><title>2026-07-30: 665,990 tokens</title></rect>
<rect x="842" y="385" width="16" height="16" rx="4" fill="#245fa5"><title>2026-07-31: 557,426 tokens</title></rect>
<rect x="842" y="404" width="16" height="16" rx="4" fill="#3984df"><title>2026-08-01: 895,240 tokens</title></rect>
<text x="861" y="277" font-size="12" fill="#a6afbf" font-weight="400" text-anchor="start">Aug</text>
<rect x="861" y="290" width="16" height="16" rx="4" fill="#245fa5"><title>2026-08-02: 530,786 tokens</title></rect>
<rect x="861" y="309" width="16" height="16" rx="4" fill="#3984df"><title>2026-08-03: 951,068 tokens</title></rect>
<rect x="861" y="328" width="16" height="16" rx="4" fill="#245fa5"><title>2026-08-04: 646,860 tokens</title></rect>
<rect x="861" y="347" width="16" height="16" rx="4" fill="#245fa5"><title>2026-08-05: 754,622 tokens</title></rect>
<rect x="861" y="366" width="16" height="16" rx="4" fill="#245fa5"><title>2026-08-06: 658,579 tokens</title></rect>
<rect x="861" y="385" width="16" height="16" rx="4" fill="#245fa5"><title>2026-08-07: 657,066 tokens</title></rect>
<rect x="861" y="404" width="16" height="16" rx="4" fill="#245fa5"><title>2026-08-08: 502,609 tokens</title></rect>
<rect x="880" y="290" width="16" height="16" rx="4" fill="#3984df"><title>2026-08-09: 848,805 tokens</title></rect>
<rect x="880" y="309" width="16" height="16" rx="4" fill="#3984df"><title>2026-08-10: 847,691 tokens</title></rect>
<rect x="880" y="328" width="16" height="16" rx="4" fill="#80b9ff"><title>2026-08-11: 11,461,900 tokens</title></rect>
<rect x="880" y="347" width="16" height="16" rx="4" fill="#3984df"><title>2026-08-12: 1,179,296 tokens</title></rect>
<rect x="880" y="366" width="16" height="16" rx="4" fill="#163d70"><title>2026-08-13: 351,337 tokens</title></rect>
<rect x="880" y="385" width="16" height="16" rx="4" fill="#3984df"><title>2026-08-14: 843,450 tokens</title></rect>
<rect x="880" y="404" width="16" height="16" rx="4" fill="#163d70"><title>2026-08-15: 482,596 tokens</title></rect>
<rect x="899" y="290" width="16" height="16" rx="4" fill="#245fa5"><title>2026-08-16: 711,103 tokens</title></rect>
<rect x="899" y="309" width="16" height="16" rx="4" fill="#3984df"><title>2026-08-17: 954,143 tokens</title></rect>
<rect x="899" y="328" width="16" height="16" rx="4" fill="#245fa5"><title>2026-08-18: 670,273 tokens</title></rect>
<rect x="899" y="347" width="16" height="16" rx="4" fill="#163d70"><title>2026-08-19: 451,765 tokens</title></rect>
<rect x="899" y="366" width="16" height="16" rx="4" fill="#163d70"><title>2026-08-20: 384,940 tokens</title></rect>
<rect x="899" y="385" width="16" height="16" rx="4" fill="#245fa5"><title>2026-08-21: 713,212 tokens</title></rect>
<rect x="899" y="404" width="16" height="16" rx="4" fill="#245fa5"><title>2026-08-22: 502,517 tokens</title></rect>
<rect x="918" y="290" width="16" height="16" rx="4" fill="#245fa5"><title>2026-08-23: 563,198 tokens</title></rect>
<rect x="918" y="309" width="16" height="16" rx="4" fill="#3984df"><title>2026-08-24: 1,343,114 tokens</title></rect>
<rect x="918" y="328" width="16" height="16" rx="4" fill="#3984df"><title>2026-08-25: 1,333,483 tokens</title></rect>
<rect x="918" y="347" width="16" height="16" rx="4" fill="#245fa5"><title>2026-08-26: 684,453 tokens</title></rect>
<rect x="918" y="366" width="16" height="16" rx="4" fill="#3984df"><title>2026-08-27: 908,776 tokens</title></rect>
<rect x="918" y="385" width="16" height="16" rx="4" fill="#3984df"><title>2026-08-28: 1,410,525 tokens</title></rect>
<rect x="918" y="404" width="16" height="16" rx="4" fill="#163d70"><title>2026-08-29: 470,658 tokens</title></rect>
<rect x="937" y="290" width="16" height="16" rx="4" fill="#163d70"><title>2026-08-30: 359,201 tokens</title></rect>
<rect x="937" y="309" width="16" height="16" rx="4" fill="#3984df"><title>2026-08-31: 1,011,396 tokens</title></rect>
<rect x="937" y="328" width="16" height="16" rx="4" fill="#245fa5"><title>2026-09-01: 592,069 tokens</title></rect>
<rect x="937" y="347" width="16" height="16" rx="4" fill="#3984df"><title>2026-09-02: 1,419,881 tokens</title></rect>
<rect x="937" y="366" width="16" height="16" rx="4" fill="#163d70"><title>2026-09-03: 241,204 tokens</title></rect>
<rect x="937" y="385" width="16" height="16" rx="4" fill="#163d70"><title>2026-09-04: 208,589 tokens</title></rect>
<rect x="937" y="404" width="16" height="16" rx="4" fill="#163d70"><title>2026-09-05: 132,492 tokens</title></rect>
<text x="956" y="277" font-size="12" fill="#a6afbf" font-weight="400" text-anchor="start">Sep</text>
<rect x="956" y="290" width="16" height="16" rx="4" fill="#163d70"><title>2026-09-06: 108,073 tokens</title></rect>
<rect x="956" y="309" width="16" height="16" rx="4" fill="#245fa5"><title>2026-09-07: 809,610 tokens</title></rect>
<rect x="956" y="328" width="16" height="16" rx="4" fill="#163d70"><title>2026-09-08: 428,813 tokens</title></rect>
<rect x="956" y="347" width="16" height="16" rx="4" fill="#163d70"><title>2026-09-09: 243,931 tokens</title></rect>
<rect x="956" y="366" width="16" height="16" rx="4" fill="#163d70"><title>2026-09-10: 235,412 tokens</title></rect>
<rect x="956" y="385" width="16" height="16" rx="4" fill="#163d70"><title>2026-09-11: 162,924 tokens</title></rect>
<rect x="956" y="404" width="16" height="16" rx="4" fill="#163d70"><title>2026-09-12: 202,676 tokens</title></rect>
<rect x="975" y="290" width="16" height="16" rx="4" fill="#163d70"><title>2026-09-13: 226,836 tokens</title></rect>
<rect x="975" y="309" width="16" height="16" rx="4" fill="#80b9ff"><title>2026-09-14: 23,503,203 tokens</title></rect>
<rect x="975" y="328" width="16" height="16" rx="4" fill="#80b9ff"><title>2026-09-15: 25,573,349 tokens</title></rect>
<rect x="975" y="347" width="16" height="16" rx="4" fill="#80b9ff"><title>2026-09-16: 2,182,079 tokens</title></rect>
<rect x="975" y="366" width="16" height="16" rx="4" fill="#80b9ff"><title>2026-09-17: 6,852,590 tokens</title></rect>
<rect x="975" y="385" width="16" height="16" rx="4" fill="#80b9ff"><title>2026-09-18: 13,683,257 tokens</title></rect>
<rect x="975" y="404" width="16" height="16" rx="4" fill="#163d70"><title>2026-09-19: 180,314 tokens</title></rect>
<rect x="994" y="290" width="16" height="16" rx="4" fill="#80b9ff"><title>2026-09-20: 2,948,731 tokens</title></rect>
<rect x="994" y="309" width="16" height="16" rx="4" fill="#163d70"><title>2026-09-21: 187,608 tokens</title></rect>
<rect x="994" y="328" width="16" height="16" rx="4" fill="#80b9ff"><title>2026-09-22: 10,850,419 tokens</title></rect>
<rect x="994" y="347" width="16" height="16" rx="4" fill="#80b9ff"><title>2026-09-23: 171,724,138 tokens</title></rect>
<rect x="994" y="366" width="16" height="16" rx="4" fill="#80b9ff"><title>2026-09-24: 42,244,115 tokens</title></rect>
<rect x="994" y="385" width="16" height="16" rx="4" fill="#80b9ff"><title>2026-09-25: 4,308,180 tokens</title></rect>
<rect x="994" y="404" width="16" height="16" rx="4" fill="#163d70"><title>2026-09-26: 155,597 tokens</title></rect>
<rect x="1013" y="290" width="16" height="16" rx="4" fill="#80b9ff"><title>2026-09-27: 57,828,273 tokens</title></rect>
<rect x="1013" y="309" width="16" height="16" rx="4" fill="#80b9ff"><title>2026-09-28: 13,506,590 tokens</title></rect>
<rect x="1013" y="328" width="16" height="16" rx="4" fill="#80b9ff"><title>2026-09-29: 3,539,474 tokens</title></rect>
<rect x="1013" y="347" width="16" height="16" rx="4" fill="#80b9ff"><title>2026-09-30: 173,641,591 tokens</title></rect>
<rect x="1013" y="366" width="16" height="16" rx="4" fill="#80b9ff"><title>2026-10-01: 213,661,920 tokens</title></rect>
<rect x="1013" y="385" width="16" height="16" rx="4" fill="#80b9ff"><title>2026-10-02: 151,490,083 tokens</title></rect>
<rect x="1013" y="404" width="16" height="16" rx="4" fill="#80b9ff"><title>2026-10-03: 170,327,523 tokens</title></rect>
<text x="1032" y="277" font-size="12" fill="#a6afbf" font-weight="400" text-anchor="start">Oct</text>
<rect x="1032" y="290" width="16" height="16" rx="4" fill="#80b9ff"><title>2026-10-04: 73,012,568 tokens</title></rect>
<rect x="1032" y="309" width="16" height="16" rx="4" fill="#80b9ff"><title>2026-10-05: 118,440,957 tokens</title></rect>
<rect x="1032" y="328" width="16" height="16" rx="4" fill="#80b9ff"><title>2026-10-06: 97,519,653 tokens</title></rect>
<rect x="1032" y="347" width="16" height="16" rx="4" fill="#80b9ff"><title>2026-10-07: 11,645,254 tokens</title></rect>
<text x="44" y="444" font-size="12" fill="#a6afbf" font-weight="400" text-anchor="start">Color intensity is relative to active days</text>
<text x="922" y="444" font-size="12" fill="#a6afbf" font-weight="400" text-anchor="end">Less</text>
<rect x="934" y="433" width="14" height="14" rx="3" fill="#2c323c"/>
<rect x="953" y="433" width="14" height="14" rx="3" fill="#163d70"/>
<rect x="972" y="433" width="14" height="14" rx="3" fill="#245fa5"/>
<rect x="991" y="433" width="14" height="14" rx="3" fill="#3984df"/>
<rect x="1010" y="433" width="14" height="14" rx="3" fill="#80b9ff"/>
<text x="1056" y="444" font-size="12" fill="#a6afbf" font-weight="400" text-anchor="end">More</text>
<path d="M 44 467 H 1056" stroke="#303641"/>
<text x="44" y="496" font-size="18" fill="#e4e9f2" font-weight="600" text-anchor="start">Activity insights</text>
<text x="602" y="496" font-size="18" fill="#e4e9f2" font-weight="600" text-anchor="start">Most used skills &amp; plugins</text>
<text x="44" y="527" font-size="14" fill="#a6afbf" font-weight="400" text-anchor="start">Fast mode</text>
<text x="508" y="527" font-size="14" fill="#e4e9f2" font-weight="400" text-anchor="end">6%</text>
<text x="44" y="550" font-size="14" fill="#a6afbf" font-weight="400" text-anchor="start">Most used reasoning</text>
<text x="508" y="550" font-size="14" fill="#e4e9f2" font-weight="400" text-anchor="end">Medium · 53%</text>
<text x="44" y="573" font-size="14" fill="#a6afbf" font-weight="400" text-anchor="start">Skills explored</text>
<text x="508" y="573" font-size="14" fill="#e4e9f2" font-weight="400" text-anchor="end">21</text>
<text x="44" y="596" font-size="14" fill="#a6afbf" font-weight="400" text-anchor="start">Total skills used</text>
<text x="508" y="596" font-size="14" fill="#e4e9f2" font-weight="400" text-anchor="end">43</text>
<text x="44" y="619" font-size="14" fill="#a6afbf" font-weight="400" text-anchor="start">Total chats</text>
<text x="508" y="619" font-size="14" fill="#e4e9f2" font-weight="400" text-anchor="end">617</text>
<text x="602" y="527" font-size="14" fill="#e4e9f2" font-weight="400" text-anchor="start">$imagegen</text>
<text x="1056" y="527" font-size="14" fill="#a6afbf" font-weight="400" text-anchor="end">17 runs</text>
<text x="602" y="550" font-size="14" fill="#e4e9f2" font-weight="400" text-anchor="start">@anthropic-skills</text>
<text x="1056" y="550" font-size="14" fill="#a6afbf" font-weight="400" text-anchor="end">4 runs</text>
<text x="602" y="573" font-size="14" fill="#e4e9f2" font-weight="400" text-anchor="start">@google-drive</text>
<text x="1056" y="573" font-size="14" fill="#a6afbf" font-weight="400" text-anchor="end">2 runs</text>
<text x="602" y="596" font-size="14" fill="#e4e9f2" font-weight="400" text-anchor="start">@pdf</text>
<text x="1056" y="596" font-size="14" fill="#a6afbf" font-weight="400" text-anchor="end">2 runs</text>
<text x="602" y="619" font-size="14" fill="#e4e9f2" font-weight="400" text-anchor="start">$grilling</text>
<text x="1056" y="619" font-size="14" fill="#a6afbf" font-weight="400" text-anchor="end">2 runs</text>
<text x="44" y="642" font-size="12" fill="#a6afbf" font-weight="400" text-anchor="start">Last updated Oct 07, 2026 · 06:42 AM EDT · Refreshes hourly from my Mac</text>
</g></svg>
